<?xml version="1.0" encoding="UTF-8" standalone="no"?>
<!-- Created with Inkscape (http://www.inkscape.org/) -->

<svg
   xmlns:dc="http://purl.org/dc/elements/1.1/"
   xmlns:cc="http://creativecommons.org/ns#"
   xmlns:rdf="http://www.w3.org/1999/02/22-rdf-syntax-ns#"
   xmlns:svg="http://www.w3.org/2000/svg"
   xmlns="http://www.w3.org/2000/svg"
   xmlns:sodipodi="http://sodipodi.sourceforge.net/DTD/sodipodi-0.dtd"
   xmlns:inkscape="http://www.inkscape.org/namespaces/inkscape"
   width="406.39999mm"
   height="128.5mm"
   viewBox="0 0 406.4 128.5"
   version="1.1"
   id="svg8"
   inkscape:version="0.92.4 (5da689c313, 2019-01-14)"
   sodipodi:docname="Meander.svg">
  <defs
     id="defs2" />
  <sodipodi:namedview
     id="base"
     pagecolor="#ffffff"
     bordercolor="#666666"
     borderopacity="1.0"
     inkscape:pageopacity="0.0"
     inkscape:pageshadow="2"
     inkscape:zoom="0.93229165"
     inkscape:cx="768.79563"
     inkscape:cy="240.61224"
     inkscape:document-units="mm"
     inkscape:current-layer="layer1"
     showgrid="false"
     inkscape:window-width="1920"
     inkscape:window-height="1177"
     inkscape:window-x="1912"
     inkscape:window-y="-8"
     inkscape:window-maximized="1"
     showguides="false" />
  <metadata
     id="metadata5">
    <rdf:RDF>
      <cc:Work
         rdf:about="">
        <dc:format>image/svg+xml</dc:format>
        <dc:type
           rdf:resource="http://purl.org/dc/dcmitype/StillImage" />
        <dc:title></dc:title>
      </cc:Work>
    </rdf:RDF>
  </metadata>
  <g
     inkscape:groupmode="layer"
     id="layer1"
     inkscape:label="Layer 1"
     style="display:inline">
    <path
       style="display:inline;opacity:1;fill:#e6e6e6;fill-opacity:1;stroke:#000000;stroke-width:1.36964488;stroke-miterlimit:4;stroke-dasharray:none;stroke-opacity:1"
       d="M 0.89532906,1.0571848 H 405.92569 V 128.61884 H 0.89532906 Z"
       id="rect13"
       inkscape:connector-curvature="0">
      <title
         id="title2875">Panel</title>
    </path>
    <g
       aria-label="Harmonic Progression Circle of 5ths"
       transform="scale(0.93515337,1.0693433)"
       style="font-style:normal;font-variant:normal;font-weight:normal;font-stretch:normal;font-size:4.44345856px;line-height:1.25;font-family:sans-serif;-inkscape-font-specification:'sans-serif, Normal';font-variant-ligatures:normal;font-variant-caps:normal;font-variant-numeric:normal;font-feature-settings:normal;text-align:start;letter-spacing:0px;word-spacing:0px;writing-mode:lr-tb;text-anchor:start;display:inline;opacity:1;fill:#000000;fill-opacity:1;stroke:none;stroke-width:0.3332594"
       id="text506">
      <title
         id="title2865">text_Meader_Circle_of_5ths</title>
      <path
         d="m 86.91293,12.413312 h -0.429592 v -1.58168 h -1.612055 v 1.58168 H 84.441691 V 9.1826919 h 0.429592 v 1.2670801 h 1.612055 V 9.1826919 h 0.429592 z"
         style="stroke-width:0.3332594"
         id="path2802"
         inkscape:connector-curvature="0" />
      <path
         d="m 89.633681,12.413312 h -0.405726 v -0.258189 q -0.05424,0.03688 -0.147537,0.104143 -0.09112,0.06509 -0.177912,0.104144 -0.101973,0.0499 -0.234323,0.08245 -0.132349,0.03471 -0.310261,0.03471 -0.327618,0 -0.555432,-0.216965 -0.227814,-0.216966 -0.227814,-0.553263 0,-0.275547 0.117162,-0.44478 0.119331,-0.171403 0.338466,-0.269037 0.221305,-0.09763 0.531566,-0.132349 0.310261,-0.03472 0.666085,-0.05207 v -0.06292 q 0,-0.138858 -0.0499,-0.229984 -0.04773,-0.09113 -0.138858,-0.143197 -0.08679,-0.0499 -0.208287,-0.06726 -0.121501,-0.01736 -0.25385,-0.01736 -0.160555,0 -0.357994,0.04339 -0.197438,0.04122 -0.407895,0.121501 h -0.0217 v -0.414405 q 0.119331,-0.03255 0.344976,-0.071598 0.225644,-0.039054 0.444779,-0.039054 0.25602,0 0.44478,0.043393 0.19093,0.041223 0.329788,0.143197 0.136689,0.0998 0.208287,0.25819 0.0716,0.158385 0.0716,0.392708 z m -0.405726,-0.596656 v -0.674763 q -0.18659,0.01085 -0.44044,0.03255 -0.251681,0.0217 -0.399217,0.06292 -0.175743,0.0499 -0.284226,0.156215 -0.108482,0.104143 -0.108482,0.288564 0,0.208288 0.12584,0.314601 0.12584,0.104143 0.384029,0.104143 0.214796,0 0.392708,-0.08245 0.177912,-0.08462 0.329788,-0.201778 z"
         style="stroke-width:0.3332594"
         id="path2804"
         inkscape:connector-curvature="0" />
      <path
         d="m 91.935688,10.434584 h -0.0217 q -0.09112,-0.0217 -0.177912,-0.03037 -0.08462,-0.01085 -0.201778,-0.01085 -0.18876,0 -0.364502,0.08462 -0.175743,0.08245 -0.338467,0.214797 v 1.720538 H 90.423437 V 9.9898045 h 0.407895 v 0.3579935 q 0.243002,-0.195269 0.427423,-0.275546 0.18659,-0.082448 0.37969,-0.082448 0.106313,0 0.154045,0.00651 0.04773,0.00434 0.143198,0.019527 z"
         style="stroke-width:0.3332594"
         id="path2806"
         inkscape:connector-curvature="0" />
      <path
         d="M 95.860598,12.413312 H 95.452702 V 11.03341 q 0,-0.156216 -0.01519,-0.301583 -0.01302,-0.145367 -0.05858,-0.232153 -0.0499,-0.0933 -0.143198,-0.141028 -0.09329,-0.04773 -0.269037,-0.04773 -0.171403,0 -0.342806,0.08679 -0.171403,0.08462 -0.342806,0.216966 0.0065,0.0499 0.01085,0.117161 0.0043,0.06509 0.0043,0.13018 v 1.551305 H 93.888379 V 11.03341 q 0,-0.160555 -0.01519,-0.303752 -0.01302,-0.145367 -0.05858,-0.232154 -0.0499,-0.09329 -0.143198,-0.138858 -0.09329,-0.04773 -0.269037,-0.04773 -0.167064,0 -0.336297,0.08245 -0.167064,0.08245 -0.334127,0.210457 v 1.809494 H 92.324056 V 9.9898045 h 0.407896 v 0.2690375 q 0.19093,-0.158385 0.37969,-0.247341 0.19093,-0.088956 0.405726,-0.088956 0.247341,0 0.418744,0.104144 0.173572,0.104143 0.258189,0.288564 0.247341,-0.208287 0.451289,-0.299413 0.203947,-0.093295 0.436101,-0.093295 0.399217,0 0.587977,0.243002 0.19093,0.240832 0.19093,0.674763 z"
         style="stroke-width:0.3332594"
         id="path2808"
         inkscape:connector-curvature="0" />
      <path
         d="m 98.711528,11.202643 q 0,0.592317 -0.303752,0.935122 -0.303753,0.342806 -0.813622,0.342806 -0.514209,0 -0.817961,-0.342806 -0.301582,-0.342805 -0.301582,-0.935122 0,-0.592316 0.301582,-0.935122 0.303752,-0.3449759 0.817961,-0.3449759 0.509869,0 0.813622,0.3449759 0.303752,0.342806 0.303752,0.935122 z m -0.420914,0 q 0,-0.470816 -0.184421,-0.69863 -0.184421,-0.229983 -0.512039,-0.229983 -0.331958,0 -0.516379,0.229983 -0.182251,0.227814 -0.182251,0.69863 0,0.455628 0.184421,0.692121 0.184421,0.234323 0.514209,0.234323 0.325449,0 0.509869,-0.232154 0.186591,-0.234323 0.186591,-0.69429 z"
         style="stroke-width:0.3332594"
         id="path2810"
         inkscape:connector-curvature="0" />
      <path
         d="m 101.37153,12.413312 h -0.4079 V 11.03341 q 0,-0.167064 -0.0195,-0.312431 -0.0195,-0.147537 -0.0716,-0.229984 -0.0542,-0.09112 -0.15622,-0.134518 -0.10197,-0.04556 -0.2647,-0.04556 -0.16706,0 -0.34931,0.08245 -0.182252,0.08245 -0.349316,0.210457 v 1.809494 H 99.345068 V 9.9898045 h 0.407896 v 0.2690375 q 0.19093,-0.158385 0.394876,-0.247341 0.20395,-0.088956 0.41875,-0.088956 0.3927,0 0.59882,0.236493 0.20612,0.236492 0.20612,0.681272 z"
         style="stroke-width:0.3332594"
         id="path2812"
         inkscape:connector-curvature="0" />
      <path
         d="m 102.59522,9.5840786 h -0.45997 V 9.1609954 h 0.45997 z m -0.026,2.8292334 h -0.4079 V 9.9898045 h 0.4079 z"
         style="stroke-width:0.3332594"
         id="path2814"
         inkscape:connector-curvature="0" />
      <path
         d="m 105.17277,12.261436 q -0.20395,0.09764 -0.38837,0.151876 -0.18225,0.05424 -0.38837,0.05424 -0.26253,0 -0.48166,-0.07594 -0.21914,-0.07811 -0.37535,-0.234323 -0.15839,-0.156215 -0.24518,-0.394877 -0.0868,-0.238663 -0.0868,-0.557602 0,-0.594486 0.32545,-0.932953 0.32762,-0.3384666 0.86352,-0.3384666 0.20829,0 0.4079,0.058581 0.20177,0.058581 0.36884,0.1431976 v 0.453458 h -0.0217 q -0.18659,-0.145367 -0.3862,-0.223475 -0.19744,-0.07811 -0.3862,-0.07811 -0.34714,0 -0.54892,0.234323 -0.19961,0.232153 -0.19961,0.683442 0,0.438271 0.19527,0.674763 0.19744,0.234323 0.55326,0.234323 0.12367,0 0.25168,-0.03255 0.12801,-0.03254 0.22999,-0.08462 0.089,-0.04556 0.16706,-0.09547 0.0781,-0.05207 0.12367,-0.08896 h 0.0217 z"
         style="stroke-width:0.3332594"
         id="path2816"
         inkscape:connector-curvature="0" />
      <path
         d="m 109.40577,10.159038 q 0,0.214796 -0.0759,0.399217 -0.0738,0.182251 -0.20829,0.31677 -0.16706,0.167063 -0.39487,0.25168 -0.22782,0.08245 -0.57496,0.08245 h -0.4296 v 1.20416 h -0.42959 V 9.1826919 h 0.87654 q 0.29074,0 0.49252,0.049902 0.20177,0.047732 0.35799,0.151876 0.18442,0.1236705 0.28423,0.3080914 0.10197,0.1844208 0.10197,0.4664767 z m -0.44695,0.01085 q 0,-0.167064 -0.0586,-0.290734 -0.0586,-0.1236705 -0.17791,-0.2017781 -0.10415,-0.067259 -0.23867,-0.095465 -0.13234,-0.030375 -0.33629,-0.030375 h -0.42526 V 10.84248 h 0.36234 q 0.26036,0 0.42308,-0.04556 0.16273,-0.04773 0.2647,-0.149706 0.10197,-0.104144 0.1432,-0.219136 0.0434,-0.114992 0.0434,-0.258189 z"
         style="stroke-width:0.3332594"
         id="path2818"
         inkscape:connector-curvature="0" />
      <path
         d="m 111.45393,10.434584 h -0.0217 q -0.0911,-0.0217 -0.17791,-0.03037 -0.0846,-0.01085 -0.20178,-0.01085 -0.18876,0 -0.3645,0.08462 -0.17574,0.08245 -0.33847,0.214797 v 1.720538 h -0.40789 V 9.9898045 h 0.40789 v 0.3579935 q 0.243,-0.195269 0.42742,-0.275546 0.18659,-0.082448 0.37969,-0.082448 0.10632,0 0.15405,0.00651 0.0477,0.00434 0.1432,0.019527 z"
         style="stroke-width:0.3332594"
         id="path2820"
         inkscape:connector-curvature="0" />
      <path
         d="m 113.90781,11.202643 q 0,0.592317 -0.30375,0.935122 -0.30376,0.342806 -0.81362,0.342806 -0.51421,0 -0.81797,-0.342806 -0.30158,-0.342805 -0.30158,-0.935122 0,-0.592316 0.30158,-0.935122 0.30376,-0.3449759 0.81797,-0.3449759 0.50986,0 0.81362,0.3449759 0.30375,0.342806 0.30375,0.935122 z m -0.42091,0 q 0,-0.470816 -0.18443,-0.69863 -0.18442,-0.229983 -0.51203,-0.229983 -0.33196,0 -0.51638,0.229983 -0.18225,0.227814 -0.18225,0.69863 0,0.455628 0.18442,0.692121 0.18442,0.234323 0.51421,0.234323 0.32544,0 0.50986,-0.232154 0.1866,-0.234323 0.1866,-0.69429 z"
         style="stroke-width:0.3332594"
         id="path2822"
         inkscape:connector-curvature="0" />
      <path
         d="m 116.50706,12.137765 q 0,0.616183 -0.27989,0.904748 -0.27988,0.288564 -0.86135,0.288564 -0.1931,0 -0.37752,-0.0282 -0.18225,-0.02604 -0.36016,-0.07594 v -0.416575 h 0.0217 q 0.0998,0.03905 0.31677,0.09547 0.21697,0.05858 0.43393,0.05858 0.20829,0 0.34498,-0.0499 0.13669,-0.0499 0.21263,-0.138858 0.0759,-0.08462 0.10848,-0.203948 0.0325,-0.119331 0.0325,-0.266868 v -0.221305 q -0.18442,0.147537 -0.35365,0.221305 -0.16706,0.0716 -0.42742,0.0716 -0.43393,0 -0.68995,-0.312431 -0.25385,-0.3146 -0.25385,-0.88522 0,-0.312431 0.0868,-0.538075 0.089,-0.227814 0.24083,-0.392708 0.14103,-0.154046 0.34281,-0.238663 0.20178,-0.086786 0.40139,-0.086786 0.21045,0 0.35148,0.043393 0.1432,0.041224 0.30158,0.12801 l 0.026,-0.1041438 h 0.38186 z m -0.4079,-0.390538 v -1.321321 q -0.16272,-0.07377 -0.30375,-0.104144 -0.13886,-0.03254 -0.27771,-0.03254 -0.3363,0 -0.5294,0.225645 -0.1931,0.225644 -0.1931,0.655236 0,0.407896 0.1432,0.618353 0.14319,0.210456 0.47515,0.210456 0.17791,0 0.35583,-0.06726 0.18008,-0.06943 0.32978,-0.184421 z"
         style="stroke-width:0.3332594"
         id="path2824"
         inkscape:connector-curvature="0" />
      <path
         d="m 118.82208,10.434584 h -0.0217 q -0.0911,-0.0217 -0.17791,-0.03037 -0.0846,-0.01085 -0.20178,-0.01085 -0.18876,0 -0.3645,0.08462 -0.17574,0.08245 -0.33846,0.214797 v 1.720538 h -0.4079 V 9.9898045 h 0.4079 v 0.3579935 q 0.243,-0.195269 0.42742,-0.275546 0.18659,-0.082448 0.37969,-0.082448 0.10631,0 0.15404,0.00651 0.0477,0.00434 0.1432,0.019527 z"
         style="stroke-width:0.3332594"
         id="path2826"
         inkscape:connector-curvature="0" />
      <path
         d="m 121.23908,11.243867 h -1.78562 q 0,0.223474 0.0672,0.390538 0.0673,0.164894 0.18443,0.271207 0.11282,0.104144 0.26686,0.156215 0.15622,0.05207 0.34281,0.05207 0.24734,0 0.49685,-0.09763 0.25168,-0.0998 0.35799,-0.19527 h 0.0217 v 0.44478 q -0.20612,0.08679 -0.42091,0.145367 -0.2148,0.05858 -0.45129,0.05858 -0.60317,0 -0.94163,-0.325449 -0.33847,-0.327618 -0.33847,-0.928613 0,-0.594486 0.32328,-0.943801 0.32545,-0.3493149 0.85484,-0.3493149 0.49035,0 0.75505,0.2863949 0.26686,0.286395 0.26686,0.813622 z m -0.39704,-0.312431 q -0.002,-0.321109 -0.16273,-0.496852 -0.15838,-0.175742 -0.48383,-0.175742 -0.32762,0 -0.52289,0.1931 -0.1931,0.193099 -0.21913,0.479494 z"
         style="stroke-width:0.3332594"
         id="path2828"
         inkscape:connector-curvature="0" />
      <path
         d="m 123.58882,11.714682 q 0,0.331958 -0.27555,0.544584 -0.27337,0.212627 -0.74853,0.212627 -0.26904,0 -0.49468,-0.06292 -0.22347,-0.06509 -0.37535,-0.141028 v -0.457798 h 0.0217 q 0.1931,0.145367 0.42959,0.232154 0.23649,0.08462 0.45346,0.08462 0.26903,0 0.42091,-0.08679 0.15188,-0.08679 0.15188,-0.273377 0,-0.143197 -0.0825,-0.216966 -0.0824,-0.07377 -0.31677,-0.12584 -0.0868,-0.01953 -0.22781,-0.04556 -0.13886,-0.02604 -0.25385,-0.05641 -0.31894,-0.08462 -0.45346,-0.247341 -0.13235,-0.164894 -0.13235,-0.403556 0,-0.149706 0.0607,-0.282055 0.0629,-0.13235 0.18876,-0.236493 0.1215,-0.101974 0.30809,-0.1605548 0.18876,-0.06075 0.42091,-0.06075 0.21697,0 0.43827,0.054241 0.22348,0.052072 0.37102,0.1280098 v 0.436101 h -0.0217 q -0.15622,-0.114992 -0.37969,-0.193099 -0.22348,-0.08028 -0.43827,-0.08028 -0.22348,0 -0.37752,0.08679 -0.15405,0.08462 -0.15405,0.25385 0,0.149706 0.0933,0.225644 0.0911,0.07594 0.29507,0.12367 0.11282,0.02604 0.25168,0.05207 0.14103,0.02604 0.23432,0.04773 0.28423,0.06509 0.43827,0.223474 0.15405,0.160555 0.15405,0.425253 z"
         style="stroke-width:0.3332594"
         id="path2830"
         inkscape:connector-curvature="0" />
      <path
         d="m 125.90602,11.714682 q 0,0.331958 -0.27555,0.544584 -0.27338,0.212627 -0.74853,0.212627 -0.26904,0 -0.49468,-0.06292 -0.22348,-0.06509 -0.37535,-0.141028 v -0.457798 h 0.0217 q 0.1931,0.145367 0.42959,0.232154 0.2365,0.08462 0.45346,0.08462 0.26904,0 0.42092,-0.08679 0.15187,-0.08679 0.15187,-0.273377 0,-0.143197 -0.0824,-0.216966 -0.0824,-0.07377 -0.31677,-0.12584 -0.0868,-0.01953 -0.22782,-0.04556 -0.13886,-0.02604 -0.25385,-0.05641 -0.31894,-0.08462 -0.45346,-0.247341 -0.13235,-0.164894 -0.13235,-0.403556 0,-0.149706 0.0607,-0.282055 0.0629,-0.13235 0.18876,-0.236493 0.1215,-0.101974 0.3081,-0.1605548 0.18876,-0.06075 0.42091,-0.06075 0.21696,0 0.43827,0.054241 0.22347,0.052072 0.37101,0.1280098 v 0.436101 h -0.0217 q -0.15621,-0.114992 -0.37969,-0.193099 -0.22347,-0.08028 -0.43827,-0.08028 -0.22347,0 -0.37752,0.08679 -0.15404,0.08462 -0.15404,0.25385 0,0.149706 0.0933,0.225644 0.0911,0.07594 0.29508,0.12367 0.11282,0.02604 0.25168,0.05207 0.14102,0.02604 0.23432,0.04773 0.28422,0.06509 0.43827,0.223474 0.15405,0.160555 0.15405,0.425253 z"
         style="stroke-width:0.3332594"
         id="path2832"
         inkscape:connector-curvature="0" />
      <path
         d="m 126.93009,9.5840786 h -0.45996 V 9.1609954 h 0.45996 z m -0.026,2.8292334 h -0.4079 V 9.9898045 h 0.4079 z"
         style="stroke-width:0.3332594"
         id="path2834"
         inkscape:connector-curvature="0" />
      <path
         d="m 129.78102,11.202643 q 0,0.592317 -0.30375,0.935122 -0.30375,0.342806 -0.81362,0.342806 -0.51421,0 -0.81796,-0.342806 -0.30159,-0.342805 -0.30159,-0.935122 0,-0.592316 0.30159,-0.935122 0.30375,-0.3449759 0.81796,-0.3449759 0.50987,0 0.81362,0.3449759 0.30375,0.342806 0.30375,0.935122 z m -0.42091,0 q 0,-0.470816 -0.18442,-0.69863 -0.18442,-0.229983 -0.51204,-0.229983 -0.33196,0 -0.51638,0.229983 -0.18225,0.227814 -0.18225,0.69863 0,0.455628 0.18442,0.692121 0.18442,0.234323 0.51421,0.234323 0.32545,0 0.50987,-0.232154 0.18659,-0.234323 0.18659,-0.69429 z"
         style="stroke-width:0.3332594"
         id="path2836"
         inkscape:connector-curvature="0" />
      <path
         d="m 132.44102,12.413312 h -0.40789 V 11.03341 q 0,-0.167064 -0.0195,-0.312431 -0.0195,-0.147537 -0.0716,-0.229984 -0.0542,-0.09112 -0.15621,-0.134518 -0.10198,-0.04556 -0.2647,-0.04556 -0.16707,0 -0.34932,0.08245 -0.18225,0.08245 -0.34931,0.210457 v 1.809494 h -0.4079 V 9.9898045 h 0.4079 v 0.2690375 q 0.19093,-0.158385 0.39488,-0.247341 0.20394,-0.088956 0.41874,-0.088956 0.39271,0 0.59883,0.236493 0.20611,0.236492 0.20611,0.681272 z"
         style="stroke-width:0.3332594"
         id="path2838"
         inkscape:connector-curvature="0" />
      <path
         d="m 137.31624,12.178989 q -0.11933,0.05207 -0.21696,0.09764 -0.0955,0.04556 -0.25168,0.09546 -0.13235,0.04122 -0.28857,0.06943 -0.15404,0.03037 -0.34063,0.03037 -0.35149,0 -0.64005,-0.09764 -0.2864,-0.0998 -0.49902,-0.310261 -0.20829,-0.206117 -0.32545,-0.522887 -0.11716,-0.31894 -0.11716,-0.739854 0,-0.399217 0.11282,-0.713817 0.11282,-0.3146002 0.32545,-0.531566 0.20612,-0.2104567 0.49685,-0.3211093 0.2929,-0.1106525 0.64873,-0.1106525 0.26036,0 0.51855,0.06292 0.26035,0.06292 0.57712,0.221305 v 0.5098695 h -0.0325 q -0.26687,-0.2234747 -0.5294,-0.3254486 -0.26253,-0.1019739 -0.56194,-0.1019739 -0.24517,0 -0.44261,0.080277 -0.19527,0.078108 -0.34931,0.2451713 -0.14971,0.1627243 -0.23433,0.4122355 -0.0824,0.247341 -0.0824,0.572789 0,0.340637 0.0911,0.585808 0.0933,0.245171 0.23867,0.399217 0.15187,0.160555 0.35365,0.238662 0.20395,0.07594 0.42959,0.07594 0.31026,0 0.58147,-0.106313 0.27121,-0.106313 0.5077,-0.31894 h 0.0304 z"
         style="stroke-width:0.3332594"
         id="path2840"
         inkscape:connector-curvature="0" />
      <path
         d="m 138.33381,9.5840786 h -0.45996 V 9.1609954 h 0.45996 z m -0.026,2.8292334 h -0.4079 V 9.9898045 h 0.4079 z"
         style="stroke-width:0.3332594"
         id="path2842"
         inkscape:connector-curvature="0" />
      <path
         d="m 140.63148,10.434584 h -0.0217 q -0.0911,-0.0217 -0.17791,-0.03037 -0.0846,-0.01085 -0.20178,-0.01085 -0.18876,0 -0.3645,0.08462 -0.17574,0.08245 -0.33847,0.214797 v 1.720538 h -0.40789 V 9.9898045 h 0.40789 v 0.3579935 q 0.24301,-0.195269 0.42743,-0.275546 0.18659,-0.082448 0.37969,-0.082448 0.10631,0 0.15404,0.00651 0.0477,0.00434 0.1432,0.019527 z"
         style="stroke-width:0.3332594"
         id="path2844"
         inkscape:connector-curvature="0" />
      <path
         d="m 142.81199,12.261436 q -0.20395,0.09764 -0.38837,0.151876 -0.18225,0.05424 -0.38837,0.05424 -0.26253,0 -0.48167,-0.07594 -0.21913,-0.07811 -0.37535,-0.234323 -0.15838,-0.156215 -0.24517,-0.394877 -0.0868,-0.238663 -0.0868,-0.557602 0,-0.594486 0.32544,-0.932953 0.32762,-0.3384666 0.86353,-0.3384666 0.20829,0 0.40789,0.058581 0.20178,0.058581 0.36885,0.1431976 v 0.453458 h -0.0217 q -0.18659,-0.145367 -0.3862,-0.223475 -0.19744,-0.07811 -0.3862,-0.07811 -0.34714,0 -0.54892,0.234323 -0.19961,0.232153 -0.19961,0.683442 0,0.438271 0.19527,0.674763 0.19744,0.234323 0.55326,0.234323 0.12367,0 0.25168,-0.03255 0.12801,-0.03254 0.22998,-0.08462 0.089,-0.04556 0.16707,-0.09547 0.0781,-0.05207 0.12367,-0.08896 h 0.0217 z"
         style="stroke-width:0.3332594"
         id="path2846"
         inkscape:connector-curvature="0" />
      <path
         d="m 143.74928,12.413312 h -0.4079 V 9.0373249 h 0.4079 z"
         style="stroke-width:0.3332594"
         id="path2848"
         inkscape:connector-curvature="0" />
      <path
         d="m 146.58936,11.243867 h -1.78563 q 0,0.223474 0.0673,0.390538 0.0673,0.164894 0.18442,0.271207 0.11282,0.104144 0.26687,0.156215 0.15622,0.05207 0.34281,0.05207 0.24734,0 0.49685,-0.09763 0.25168,-0.0998 0.35799,-0.19527 h 0.0217 v 0.44478 q -0.20612,0.08679 -0.42092,0.145367 -0.21479,0.05858 -0.45128,0.05858 -0.60317,0 -0.94164,-0.325449 -0.33846,-0.327618 -0.33846,-0.928613 0,-0.594486 0.32328,-0.943801 0.32545,-0.3493149 0.85484,-0.3493149 0.49034,0 0.75504,0.2863949 0.26687,0.286395 0.26687,0.813622 z m -0.39705,-0.312431 q -0.002,-0.321109 -0.16272,-0.496852 -0.15839,-0.175742 -0.48384,-0.175742 -0.32761,0 -0.52288,0.1931 -0.1931,0.193099 -0.21914,0.479494 z"
         style="stroke-width:0.3332594"
         id="path2850"
         inkscape:connector-curvature="0" />
      <path
         d="m 150.83538,11.202643 q 0,0.592317 -0.30375,0.935122 -0.30376,0.342806 -0.81363,0.342806 -0.5142,0 -0.81796,-0.342806 -0.30158,-0.342805 -0.30158,-0.935122 0,-0.592316 0.30158,-0.935122 0.30376,-0.3449759 0.81796,-0.3449759 0.50987,0 0.81363,0.3449759 0.30375,0.342806 0.30375,0.935122 z m -0.42092,0 q 0,-0.470816 -0.18442,-0.69863 -0.18442,-0.229983 -0.51204,-0.229983 -0.33195,0 -0.51637,0.229983 -0.18226,0.227814 -0.18226,0.69863 0,0.455628 0.18443,0.692121 0.18442,0.234323 0.5142,0.234323 0.32545,0 0.50987,-0.232154 0.18659,-0.234323 0.18659,-0.69429 z"
         style="stroke-width:0.3332594"
         id="path2852"
         inkscape:connector-curvature="0" />
      <path
         d="m 152.77289,9.4322026 h -0.0217 q -0.0673,-0.019527 -0.17574,-0.039054 -0.10849,-0.021697 -0.19093,-0.021697 -0.26253,0 -0.38186,0.1171616 -0.11716,0.1149918 -0.11716,0.4187438 v 0.082447 h 0.73551 v 0.342806 h -0.7225 v 2.080702 h -0.40789 V 10.33261 h -0.27555 V 9.9898045 h 0.27555 v -0.080277 q 0,-0.4317618 0.21479,-0.6617455 0.2148,-0.2321534 0.62053,-0.2321534 0.13669,0 0.24517,0.013018 0.11065,0.013018 0.20178,0.030375 z"
         style="stroke-width:0.3332594"
         id="path2854"
         inkscape:connector-curvature="0" />
      <path
         d="m 156.70213,11.387064 q 0,0.225644 -0.0824,0.431762 -0.0824,0.206117 -0.22565,0.347145 -0.15621,0.151876 -0.37318,0.234323 -0.21479,0.08028 -0.49902,0.08028 -0.2647,0 -0.50987,-0.05641 -0.24517,-0.05424 -0.4144,-0.132349 v -0.457798 h 0.0304 q 0.17791,0.112823 0.41658,0.1931 0.23866,0.07811 0.46864,0.07811 0.15405,0 0.29725,-0.04339 0.14536,-0.04339 0.25818,-0.151876 0.0955,-0.09329 0.1432,-0.223474 0.0499,-0.13018 0.0499,-0.301583 0,-0.167063 -0.0586,-0.282055 -0.0564,-0.114992 -0.15838,-0.184421 -0.11282,-0.08245 -0.27555,-0.114992 -0.16055,-0.03471 -0.36016,-0.03471 -0.19093,0 -0.36884,0.02603 -0.17575,0.02604 -0.30375,0.05207 V 9.1826919 h 1.94401 V 9.562382 h -1.52527 v 0.859184 q 0.0933,-0.0087 0.19093,-0.01302 0.0976,-0.0043 0.16923,-0.0043 0.26253,0 0.45997,0.04556 0.19744,0.04339 0.36233,0.156215 0.17357,0.119331 0.26904,0.308092 0.0955,0.18876 0.0955,0.472985 z"
         style="stroke-width:0.3332594"
         id="path2856"
         inkscape:connector-curvature="0" />
      <path
         d="m 158.68086,12.391615 q -0.11499,0.03038 -0.25168,0.0499 -0.13452,0.01953 -0.24083,0.01953 -0.37101,0 -0.56411,-0.199608 -0.1931,-0.199609 -0.1931,-0.640049 V 10.33261 h -0.27555 V 9.9898045 h 0.27555 v -0.69646 h 0.40789 v 0.69646 h 0.84183 V 10.33261 h -0.84183 v 1.104356 q 0,0.19093 0.009,0.299413 0.009,0.106313 0.0607,0.199608 0.0477,0.08679 0.13018,0.12801 0.0846,0.03905 0.25602,0.03905 0.0998,0 0.20829,-0.02821 0.10848,-0.03037 0.15621,-0.0499 h 0.0217 z"
         style="stroke-width:0.3332594"
         id="path2858"
         inkscape:connector-curvature="0" />
      <path
         d="m 161.202,12.413312 h -0.40789 V 11.03341 q 0,-0.167064 -0.0195,-0.312431 -0.0195,-0.147537 -0.0716,-0.229984 -0.0542,-0.09112 -0.15622,-0.134518 -0.10197,-0.04556 -0.26469,-0.04556 -0.16707,0 -0.34932,0.08245 -0.18225,0.08245 -0.34931,0.210457 v 1.809494 h -0.4079 V 9.0373249 h 0.4079 v 1.2215171 q 0.19093,-0.158385 0.39487,-0.247341 0.20395,-0.088956 0.41875,-0.088956 0.39271,0 0.59882,0.236493 0.20612,0.236492 0.20612,0.681272 z"
         style="stroke-width:0.3332594"
         id="path2860"
         inkscape:connector-curvature="0" />
      <path
         d="m 163.7188,11.714682 q 0,0.331958 -0.27554,0.544584 -0.27338,0.212627 -0.74854,0.212627 -0.26903,0 -0.49468,-0.06292 -0.22347,-0.06509 -0.37535,-0.141028 v -0.457798 h 0.0217 q 0.1931,0.145367 0.42959,0.232154 0.23649,0.08462 0.45346,0.08462 0.26904,0 0.42091,-0.08679 0.15188,-0.08679 0.15188,-0.273377 0,-0.143197 -0.0825,-0.216966 -0.0824,-0.07377 -0.31677,-0.12584 -0.0868,-0.01953 -0.22781,-0.04556 -0.13886,-0.02604 -0.25385,-0.05641 -0.31894,-0.08462 -0.45346,-0.247341 -0.13235,-0.164894 -0.13235,-0.403556 0,-0.149706 0.0607,-0.282055 0.0629,-0.13235 0.18876,-0.236493 0.1215,-0.101974 0.30809,-0.1605548 0.18876,-0.06075 0.42092,-0.06075 0.21696,0 0.43827,0.054241 0.22347,0.052072 0.37101,0.1280098 v 0.436101 h -0.0217 q -0.15621,-0.114992 -0.37969,-0.193099 -0.22347,-0.08028 -0.43827,-0.08028 -0.22347,0 -0.37752,0.08679 -0.15405,0.08462 -0.15405,0.25385 0,0.149706 0.0933,0.225644 0.0911,0.07594 0.29507,0.12367 0.11282,0.02604 0.25168,0.05207 0.14103,0.02604 0.23433,0.04773 0.28422,0.06509 0.43827,0.223474 0.15404,0.160555 0.15404,0.425253 z"
         style="stroke-width:0.3332594"
         id="path2862"
         inkscape:connector-curvature="0" />
    </g>
    <g
       aria-label="PS"
       transform="matrix(0.93515337,0,0,1.0693433,13.013387,0)"
       style="font-style:normal;font-weight:normal;font-size:8.88691711px;line-height:1.25;font-family:sans-serif;letter-spacing:0px;word-spacing:0px;display:inline;opacity:1;fill:#000000;fill-opacity:1;stroke:none;stroke-width:0.3332594"
       id="text534">
      <title
         id="title2764">text_PS</title>
      <path
         d="m 81.107776,4.4091067 q 0,0.4295922 -0.151876,0.798434 -0.147537,0.3645024 -0.416574,0.63354 -0.334128,0.3341272 -0.789756,0.5033605 -0.455628,0.164894 -1.149918,0.164894 H 77.740467 V 8.917655 h -0.859184 v -6.46124 h 1.753083 q 0.581469,0 0.985025,0.099804 0.403556,0.095465 0.715987,0.3037521 0.368842,0.2473409 0.56845,0.6161827 0.203948,0.3688418 0.203948,0.9329529 z m -0.893899,0.021697 q 0,-0.3341273 -0.117161,-0.5814682 Q 79.979554,3.6019941 79.740892,3.4457788 79.532605,3.31126 79.263567,3.2548489 q -0.264698,-0.06075 -0.672594,-0.06075 h -0.850506 v 2.5818924 h 0.724666 q 0.520718,0 0.846167,-0.091126 0.325448,-0.095465 0.529396,-0.2994127 0.203948,-0.2082871 0.286395,-0.4382708 0.08679,-0.2299837 0.08679,-0.5163785 z"
         style="stroke-width:0.3332594"
         id="path2759"
         inkscape:connector-curvature="0" />
      <path
         d="m 86.939815,7.0734461 q 0,0.3775204 -0.177912,0.7463622 -0.173572,0.3688418 -0.490342,0.6248614 -0.347145,0.2777161 -0.811452,0.4339315 -0.459968,0.1562153 -1.110865,0.1562153 -0.69863,0 -1.258401,-0.1301795 Q 82.535411,8.7744576 81.958282,8.518438 V 7.4422879 h 0.06075 q 0.490343,0.4078956 1.132561,0.6292007 0.642219,0.221305 1.20633,0.221305 0.798434,0 1.241044,-0.2994127 0.446949,-0.2994127 0.446949,-0.798434 0,-0.4295921 -0.212626,-0.63354 Q 85.625003,6.3574591 85.195411,6.244637 84.869962,6.1578507 84.488102,6.1014396 84.110582,6.0450285 83.685329,5.9582422 82.826145,5.7759909 82.40957,5.3377201 81.997335,4.89511 81.997335,4.1878016 q 0,-0.8114519 0.685612,-1.3278303 0.685612,-0.5207178 1.740066,-0.5207178 0.681272,0 1.249722,0.1301794 0.568451,0.1301795 1.006721,0.3211093 v 1.0153997 h -0.06075 Q 86.249864,3.4935112 85.646699,3.2895634 85.047874,3.0812763 84.418673,3.0812763 q -0.689951,0 -1.110864,0.2863948 -0.416575,0.2863948 -0.416575,0.7376836 0,0.4035563 0.208287,0.6335399 0.208288,0.2299837 0.733345,0.3514846 0.277716,0.06075 0.789755,0.1475367 0.512039,0.086786 0.867863,0.1779119 0.720326,0.1909298 1.084829,0.5771289 0.364502,0.386199 0.364502,1.0804894 z"
         style="stroke-width:0.3332594"
         id="path2761"
         inkscape:connector-curvature="0" />
    </g>
    <g
       aria-label="Meander"
       style="font-style:normal;font-weight:normal;font-size:8.46666622px;line-height:1.25;font-family:sans-serif;letter-spacing:0px;word-spacing:0px;fill:#000000;fill-opacity:1;stroke:none;stroke-width:0.26458332"
       id="text1160"
       transform="translate(13.013387)">
      <title
         id="title2384">text_Meander</title>
      <path
         d="M 96.625454,8.5763893 H 95.806899 V 3.2723206 L 94.095376,6.8814024 H 93.60755 L 91.908429,3.2723206 V 8.5763893 H 91.143618 V 2.420693 h 1.116211 l 1.641244,3.4271808 1.587499,-3.4271808 h 1.136882 z"
         style="font-size:8.46666622px;stroke-width:0.26458332"
         id="path2369"
         inkscape:connector-curvature="0" />
      <path
         d="m 102.09075,6.3481017 h -3.402373 q 0,0.4258137 0.128158,0.7441406 0.128157,0.3141926 0.351399,0.5167643 0.214974,0.1984374 0.508496,0.2976562 0.297657,0.099219 0.65319,0.099219 0.47129,0 0.94671,-0.1860351 0.47956,-0.1901693 0.68213,-0.3720703 h 0.0413 v 0.8474934 q -0.39274,0.1653646 -0.80202,0.2769857 -0.40927,0.1116211 -0.85989,0.1116211 -1.149285,0 -1.794207,-0.6201172 -0.644922,-0.6242512 -0.644922,-1.7694009 0,-1.1327474 0.615983,-1.7983398 0.620117,-0.6655924 1.628846,-0.6655924 0.93431,0 1.43867,0.5457031 0.50849,0.5457031 0.50849,1.5502929 z m -0.75654,-0.5953125 q -0.004,-0.6118489 -0.31006,-0.9467122 -0.30179,-0.3348633 -0.92191,-0.3348633 -0.624247,0 -0.996317,0.3679362 -0.367937,0.3679362 -0.417546,0.9136393 z"
         style="font-size:8.46666622px;stroke-width:0.26458332"
         id="path2371"
         inkscape:connector-curvature="0" />
      <path
         d="m 106.85739,8.5763893 h -0.77308 V 8.0844297 q -0.10336,0.07028 -0.28112,0.1984375 -0.17363,0.1240234 -0.339,0.1984375 -0.1943,0.095085 -0.44648,0.1570963 -0.25218,0.066146 -0.59118,0.066146 -0.62425,0 -1.05834,-0.4134115 -0.43408,-0.4134114 -0.43408,-1.0541991 0,-0.5250326 0.22324,-0.8474935 0.22738,-0.326595 0.64493,-0.5126302 0.42168,-0.1860351 1.01285,-0.2521809 0.59118,-0.066146 1.26918,-0.099219 V 5.4055236 q 0,-0.2645833 -0.0951,-0.4382161 -0.091,-0.1736328 -0.26458,-0.2728516 -0.16536,-0.095085 -0.39688,-0.1281575 -0.23151,-0.033073 -0.48369,-0.033073 -0.30592,0 -0.68213,0.082682 -0.3762,0.078548 -0.77721,0.2315104 h -0.0413 V 4.0578023 q 0.22738,-0.062012 0.65732,-0.1364258 0.42995,-0.074414 0.8475,-0.074414 0.48782,0 0.84749,0.082682 0.3638,0.078548 0.62839,0.2728515 0.26045,0.1901693 0.39687,0.4919596 0.13643,0.3017904 0.13643,0.7482747 z M 106.08431,7.4395079 V 6.1537983 q -0.35554,0.020671 -0.83923,0.062012 -0.47955,0.041341 -0.76067,0.1198893 -0.33487,0.095085 -0.54157,0.2976563 -0.20671,0.1984375 -0.20671,0.5498372 0,0.396875 0.23978,0.5994466 0.23978,0.1984374 0.73174,0.1984374 0.40927,0 0.74827,-0.1570963 0.339,-0.1612305 0.62839,-0.3844729 z"
         style="font-size:8.46666622px;stroke-width:0.26458332"
         id="path2373"
         inkscape:connector-curvature="0" />
      <path
         d="m 112.22347,8.5763893 h -0.77722 V 5.9470926 q 0,-0.3183268 -0.0372,-0.5953125 -0.0372,-0.2811198 -0.13643,-0.4382161 -0.10335,-0.1736328 -0.29766,-0.2563151 -0.1943,-0.086816 -0.50436,-0.086816 -0.31832,0 -0.66559,0.1570963 -0.34727,0.1570964 -0.66559,0.4010091 v 3.447851 H 108.3622 V 3.9585836 h 0.77722 v 0.5126301 q 0.3638,-0.3017903 0.75241,-0.471289 0.3886,-0.1694987 0.79788,-0.1694987 0.74828,0 1.14102,0.4506185 0.39274,0.4506185 0.39274,1.2981119 z"
         style="font-size:8.46666622px;stroke-width:0.26458332"
         id="path2375"
         inkscape:connector-curvature="0" />
      <path
         d="m 117.46552,8.5763893 h -0.77721 V 8.0926979 q -0.33486,0.289388 -0.69866,0.4506185 -0.36381,0.1612305 -0.78962,0.1612305 -0.82682,0 -1.31465,-0.6366537 -0.48369,-0.6366536 -0.48369,-1.7652668 0,-0.5870442 0.16536,-1.0459309 0.1695,-0.4588867 0.45476,-0.7813476 0.28112,-0.3141927 0.65319,-0.4795573 0.3762,-0.1653646 0.77721,-0.1653646 0.3638,0 0.64492,0.078548 0.28112,0.074414 0.59118,0.2356445 V 2.1437074 h 0.77721 z M 116.68831,7.4395079 V 4.7895406 q -0.31419,-0.1405599 -0.56224,-0.1943034 -0.24805,-0.053743 -0.54157,-0.053743 -0.65319,0 -1.01699,0.4547526 -0.3638,0.4547526 -0.3638,1.2898437 0,0.8226887 0.28112,1.2526366 0.28112,0.4258138 0.90124,0.4258138 0.33072,0 0.66972,-0.144694 0.339,-0.1488281 0.63252,-0.380339 z"
         style="font-size:8.46666622px;stroke-width:0.26458332"
         id="path2377"
         inkscape:connector-curvature="0" />
      <path
         d="m 122.86054,6.3481017 h -3.40237 q 0,0.4258137 0.12815,0.7441406 0.12816,0.3141926 0.3514,0.5167643 0.21498,0.1984374 0.5085,0.2976562 0.29766,0.099219 0.65319,0.099219 0.47129,0 0.94671,-0.1860351 0.47956,-0.1901693 0.68213,-0.3720703 h 0.0413 v 0.8474934 q -0.39274,0.1653646 -0.80202,0.2769857 -0.40927,0.1116211 -0.85989,0.1116211 -1.14928,0 -1.79421,-0.6201172 -0.64492,-0.6242512 -0.64492,-1.7694009 0,-1.1327474 0.61598,-1.7983398 0.62012,-0.6655924 1.62885,-0.6655924 0.93431,0 1.43867,0.5457031 0.50849,0.5457031 0.50849,1.5502929 z M 122.104,5.7527892 Q 122.1,5.1409403 121.79394,4.806077 q -0.30179,-0.3348633 -0.92191,-0.3348633 -0.62425,0 -0.99632,0.3679362 -0.36793,0.3679362 -0.41754,0.9136393 z"
         style="font-size:8.46666622px;stroke-width:0.26458332"
         id="path2379"
         inkscape:connector-curvature="0" />
      <path
         d="m 126.92025,4.806077 h -0.0413 q -0.17363,-0.041341 -0.33899,-0.057878 -0.16123,-0.020671 -0.38448,-0.020671 -0.35966,0 -0.69453,0.1612305 -0.33486,0.1570963 -0.64492,0.4092773 v 3.2783527 h -0.77721 V 3.9585836 h 0.77721 v 0.6821288 q 0.46302,-0.3720703 0.81442,-0.5250325 0.35554,-0.1570963 0.72347,-0.1570963 0.20257,0 0.29352,0.012402 0.0909,0.00827 0.27286,0.037207 z"
         style="font-size:8.46666622px;stroke-width:0.26458332"
         id="path2381"
         inkscape:connector-curvature="0" />
    </g>
    <text
       xml:space="preserve"
       style="font-style:normal;font-weight:normal;font-size:4.93888855px;line-height:1.25;font-family:sans-serif;letter-spacing:0px;word-spacing:0px;fill:#000000;fill-opacity:1;stroke:none;stroke-width:0.26458332"
       x="7.5453448"
       y="69.438164"
       id="text1161"><tspan
         sodipodi:role="line"
         id="tspan1159"
         x="7.5453448"
         y="73.944061"
         style="stroke-width:0.26458332" /></text>
    <path
       style="display:inline;fill:#000000;stroke:#ffffff;stroke-width:0.01455167px;stroke-linecap:butt;stroke-linejoin:miter;stroke-opacity:1"
       d="m 171.02467,16.620758 0.002,95.510342"
       id="path1160-6"
       inkscape:connector-curvature="0" />
    <text
       xml:space="preserve"
       style="font-style:normal;font-weight:normal;font-size:4.23333311px;line-height:1.25;font-family:sans-serif;letter-spacing:0px;word-spacing:0px;fill:#000000;fill-opacity:1;stroke:none;stroke-width:0.26458332"
       x="60.959999"
       y="31.697777"
       id="text1298"><tspan
         sodipodi:role="line"
         id="tspan1296"
         x="60.959999"
         y="35.559975"
         style="stroke-width:0.26458332" /><tspan
         sodipodi:role="line"
         x="60.959999"
         y="40.851643"
         style="stroke-width:0.26458332"
         id="tspan1300" /></text>
    <text
       xml:space="preserve"
       style="font-style:normal;font-weight:normal;font-size:4.23333311px;line-height:1.25;font-family:sans-serif;letter-spacing:0px;word-spacing:0px;fill:#000000;fill-opacity:1;stroke:none;stroke-width:0.26458332"
       x="60.959999"
       y="50.888885"
       id="text1308"><tspan
         sodipodi:role="line"
         id="tspan1306"
         x="60.959999"
         y="54.751083"
         style="stroke-width:0.26458332" /><tspan
         sodipodi:role="line"
         x="60.959999"
         y="60.042751"
         style="stroke-width:0.26458332"
         id="tspan1310" /></text>
    <text
       xml:space="preserve"
       style="font-style:normal;font-weight:normal;font-size:4.23333311px;line-height:1.25;font-family:sans-serif;letter-spacing:0px;word-spacing:0px;fill:#000000;fill-opacity:1;stroke:none;stroke-width:0.26458332"
       x="61.242222"
       y="69.23333"
       id="text1319"><tspan
         sodipodi:role="line"
         id="tspan1317"
         x="61.242222"
         y="73.095528"
         style="stroke-width:0.26458332" /><tspan
         sodipodi:role="line"
         x="61.242222"
         y="78.387192"
         style="stroke-width:0.26458332"
         id="tspan1321" /></text>
    <path
       style="display:inline;opacity:1;fill:#ffffff;fill-opacity:1;stroke:#000000;stroke-width:0.82835561;stroke-miterlimit:4;stroke-dasharray:none;stroke-opacity:1"
       d="m 261.80774,2.0846763 h 11.30704 v 5.6652212 h -11.30704 z"
       id="rect1625-9"
       inkscape:connector-curvature="0" />
    <g
       aria-label="Playing Notes"
       style="font-style:normal;font-weight:normal;font-size:4.23333311px;line-height:1.25;font-family:sans-serif;letter-spacing:0px;word-spacing:0px;fill:#000000;fill-opacity:1;stroke:none;stroke-width:0.26458332"
       id="text1677">
      <path
         d="m 159.84089,4.4472101 q 0,0.2046386 -0.0723,0.3803385 -0.0703,0.1736328 -0.19844,0.3017903 -0.15916,0.1591634 -0.3762,0.2397787 -0.21705,0.078548 -0.54777,0.078548 h -0.40928 v 1.1472167 h -0.40928 v -3.077848 h 0.83509 q 0.27699,0 0.46922,0.047542 0.19224,0.045475 0.34107,0.144694 0.1757,0.1178222 0.27078,0.2935221 0.0971,0.1756998 0.0971,0.4444173 z m -0.42581,0.010335 q 0,-0.1591634 -0.0558,-0.2769857 -0.0558,-0.1178223 -0.1695,-0.1922363 -0.0992,-0.064079 -0.22737,-0.09095 -0.1261,-0.028939 -0.3204,-0.028939 h -0.40514 v 1.229899 h 0.3452 q 0.24804,0 0.40307,-0.043408 0.15503,-0.045475 0.25218,-0.142627 0.0972,-0.099219 0.13643,-0.2087727 0.0413,-0.1095541 0.0413,-0.2459798 z"
         style="stroke-width:0.26458332"
         id="path1607"
         inkscape:connector-curvature="0" />
      <path
         d="m 160.7442,6.5948825 h -0.38861 v -3.216341 h 0.38861 z"
         style="stroke-width:0.26458332"
         id="path1609"
         inkscape:connector-curvature="0" />
      <path
         d="m 163.31148,6.5948825 h -0.38654 V 6.3489027 q -0.0517,0.03514 -0.14056,0.099219 -0.0868,0.062012 -0.16949,0.099219 -0.0972,0.047542 -0.22325,0.078548 -0.12609,0.033073 -0.29559,0.033073 -0.31212,0 -0.52916,-0.2067058 -0.21704,-0.2067057 -0.21704,-0.5270995 0,-0.2625163 0.11162,-0.4237468 0.11369,-0.1632975 0.32246,-0.2563151 0.21084,-0.093018 0.50643,-0.1260904 0.29559,-0.033073 0.63458,-0.049609 v -0.059945 q 0,-0.1322916 -0.0475,-0.219108 -0.0455,-0.086816 -0.13229,-0.1364258 -0.0827,-0.047542 -0.19844,-0.064079 -0.11575,-0.016536 -0.24184,-0.016536 -0.15297,0 -0.34107,0.041341 -0.1881,0.039274 -0.3886,0.1157552 h -0.0207 V 4.335589 q 0.11368,-0.031006 0.32866,-0.068213 0.21497,-0.037207 0.42374,-0.037207 0.24392,0 0.42375,0.041341 0.1819,0.039274 0.31419,0.1364258 0.13023,0.095085 0.19844,0.2459798 0.0682,0.1508952 0.0682,0.3741373 z M 162.92494,6.0264418 V 5.383587 q -0.17776,0.010335 -0.41961,0.031006 -0.23978,0.020671 -0.38034,0.059945 -0.16743,0.047542 -0.27078,0.1488281 -0.10335,0.099219 -0.10335,0.2749186 0,0.1984375 0.11988,0.2997233 0.11989,0.099219 0.36587,0.099219 0.20464,0 0.37414,-0.078548 0.1695,-0.080615 0.31419,-0.1922372 z"
         style="stroke-width:0.26458332"
         id="path1611"
         inkscape:connector-curvature="0" />
      <path
         d="M 166.0276,4.2859796 164.67988,7.44651 h -0.41548 l 0.42994,-0.9632486 -0.91984,-2.1972818 h 0.42168 l 0.709,1.7115234 0.71521,-1.7115234 z"
         style="stroke-width:0.26458332"
         id="path1613"
         inkscape:connector-curvature="0" />
      <path
         d="m 166.95364,3.8994399 h -0.43822 V 3.4963638 h 0.43822 z m -0.0248,2.6954426 h -0.3886 V 4.2859796 h 0.3886 z"
         style="stroke-width:0.26458332"
         id="path1615"
         inkscape:connector-curvature="0" />
      <path
         d="m 169.63254,6.5948825 h -0.3886 V 5.2802341 q 0,-0.1591634 -0.0186,-0.2976562 -0.0186,-0.1405599 -0.0682,-0.2191081 -0.0517,-0.086816 -0.14883,-0.1281575 -0.0971,-0.043408 -0.25218,-0.043408 -0.15916,0 -0.33279,0.078548 -0.17364,0.078548 -0.3328,0.2005045 v 1.7239257 h -0.38861 V 4.2859796 h 0.38861 v 0.2563151 q 0.1819,-0.1508952 0.3762,-0.2356445 0.19431,-0.084749 0.39895,-0.084749 0.37413,0 0.5705,0.2253093 0.19637,0.2253092 0.19637,0.6490559 z"
         style="stroke-width:0.26458332"
         id="path1617"
         inkscape:connector-curvature="0" />
      <path
         d="m 172.25357,6.3323662 q 0,0.5870443 -0.26665,0.8619629 -0.26665,0.2749186 -0.82062,0.2749186 -0.18397,0 -0.35967,-0.026872 -0.17363,-0.024805 -0.34313,-0.072347 V 6.973154 h 0.0207 q 0.0951,0.037207 0.30179,0.09095 0.20671,0.05581 0.41341,0.05581 0.19844,0 0.32867,-0.047542 0.13022,-0.047542 0.20257,-0.1322917 0.0723,-0.080615 0.10335,-0.1943033 0.031,-0.1136882 0.031,-0.2542481 V 6.2806898 q -0.1757,0.1405599 -0.33693,0.2108398 -0.15917,0.068213 -0.40721,0.068213 -0.41342,0 -0.65733,-0.2976562 -0.24184,-0.2997233 -0.24184,-0.8433593 0,-0.2976563 0.0827,-0.5126302 0.0848,-0.217041 0.22944,-0.3741374 0.13436,-0.146761 0.3266,-0.2273763 0.19223,-0.082682 0.3824,-0.082682 0.20051,0 0.33486,0.041341 0.13643,0.039274 0.28733,0.1219564 l 0.0248,-0.099219 h 0.3638 z m -0.3886,-0.3720703 V 4.7014581 q -0.15503,-0.07028 -0.28939,-0.099219 -0.13229,-0.031006 -0.26459,-0.031006 -0.32039,0 -0.50436,0.214974 -0.18397,0.2149739 -0.18397,0.6242512 0,0.3886068 0.13643,0.5891113 0.13643,0.2005046 0.45269,0.2005046 0.16949,0 0.33899,-0.064079 0.17157,-0.066146 0.3142,-0.1756993 z"
         style="stroke-width:0.26458332"
         id="path1619"
         inkscape:connector-curvature="0" />
      <path
         d="m 176.88585,6.5948825 h -0.50643 l -1.45934,-2.7533202 v 2.7533202 h -0.38241 V 3.5170343 h 0.63459 l 1.33118,2.5135416 V 3.5170343 h 0.38241 z"
         style="stroke-width:0.26458332"
         id="path1621"
         inkscape:connector-curvature="0" />
      <path
         d="m 179.64123,5.4414646 q 0,0.5643066 -0.28938,0.8909016 -0.28939,0.3265951 -0.77515,0.3265951 -0.48989,0 -0.77928,-0.3265951 -0.28732,-0.326595 -0.28732,-0.8909016 0,-0.5643066 0.28732,-0.8909017 0.28939,-0.3286621 0.77928,-0.3286621 0.48576,0 0.77515,0.3286621 0.28938,0.3265951 0.28938,0.8909017 z m -0.401,0 q 0,-0.4485514 -0.1757,-0.6655924 -0.1757,-0.2191081 -0.48783,-0.2191081 -0.31626,0 -0.49196,0.2191081 -0.17363,0.217041 -0.17363,0.6655924 0,0.434082 0.1757,0.6593912 0.1757,0.2232422 0.48989,0.2232422 0.31006,0 0.48576,-0.2211751 0.17777,-0.2232422 0.17777,-0.6614583 z"
         style="stroke-width:0.26458332"
         id="path1623"
         inkscape:connector-curvature="0" />
      <path
         d="m 181.44371,6.5742119 q -0.10956,0.028939 -0.23978,0.047542 -0.12816,0.018604 -0.22944,0.018604 -0.35347,0 -0.53744,-0.1901692 -0.18397,-0.1901693 -0.18397,-0.6097819 v -1.227832 h -0.26251 v -0.326595 h 0.26251 V 3.6224543 h 0.38861 v 0.6635253 h 0.80202 v 0.326595 h -0.80202 v 1.0521322 q 0,0.181901 0.008,0.2852538 0.008,0.1012858 0.0579,0.1901693 0.0455,0.082682 0.12402,0.1219564 0.0806,0.037207 0.24391,0.037207 0.0951,0 0.19844,-0.026872 0.10335,-0.028939 0.14883,-0.047542 h 0.0207 z"
         style="stroke-width:0.26458332"
         id="path1625"
         inkscape:connector-curvature="0" />
      <path
         d="m 183.8477,5.4807387 h -1.70119 q 0,0.2129069 0.0641,0.3720703 0.0641,0.1570963 0.1757,0.2583821 0.10748,0.099219 0.25425,0.1488281 0.14882,0.049609 0.32659,0.049609 0.23564,0 0.47336,-0.093018 0.23978,-0.095085 0.34106,-0.1860351 h 0.0207 v 0.4237467 q -0.19637,0.082682 -0.40101,0.1384928 -0.20464,0.055811 -0.42995,0.055811 -0.57464,0 -0.8971,-0.3100586 -0.32246,-0.3121256 -0.32246,-0.8847005 0,-0.5663736 0.30799,-0.8991699 0.31006,-0.3327962 0.81442,-0.3327962 0.46716,0 0.71934,0.2728516 0.25425,0.2728515 0.25425,0.7751464 z m -0.37827,-0.2976563 q -0.002,-0.3059244 -0.15503,-0.4733561 -0.1509,-0.1674316 -0.46096,-0.1674316 -0.31212,0 -0.49816,0.1839681 -0.18397,0.1839681 -0.20877,0.4568196 z"
         style="stroke-width:0.26458332"
         id="path1627"
         inkscape:connector-curvature="0" />
      <path
         d="m 186.08632,5.9292901 q 0,0.3162597 -0.26252,0.5188313 -0.26044,0.2025716 -0.71313,0.2025716 -0.25632,0 -0.47129,-0.059945 -0.21291,-0.062012 -0.3576,-0.1343587 V 6.0202406 h 0.0207 q 0.18397,0.1384928 0.40928,0.2211751 0.22531,0.080615 0.43201,0.080615 0.25632,0 0.40101,-0.082682 0.1447,-0.082682 0.1447,-0.2604493 0,-0.1364257 -0.0786,-0.2067057 -0.0785,-0.07028 -0.30179,-0.1198893 -0.0827,-0.018604 -0.21704,-0.043408 -0.1323,-0.024805 -0.24185,-0.053744 -0.30386,-0.080615 -0.43201,-0.2356445 -0.1261,-0.1570963 -0.1261,-0.3844726 0,-0.142627 0.0579,-0.2687175 0.06,-0.1260905 0.17984,-0.2253092 0.11575,-0.097152 0.29352,-0.1529622 0.17983,-0.057878 0.40101,-0.057878 0.2067,0 0.41754,0.051676 0.21291,0.049609 0.35347,0.1219564 v 0.4154785 h -0.0207 q -0.14883,-0.1095541 -0.36174,-0.1839681 -0.2129,-0.076481 -0.41754,-0.076481 -0.21291,0 -0.35967,0.082682 -0.14676,0.080615 -0.14676,0.2418456 0,0.142627 0.0889,0.214974 0.0868,0.072347 0.28112,0.1178222 0.10749,0.024805 0.23978,0.049609 0.13436,0.024805 0.22324,0.045475 0.27079,0.062012 0.41755,0.2129069 0.14676,0.1529622 0.14676,0.4051432 z"
         style="stroke-width:0.26458332"
         id="path1629"
         inkscape:connector-curvature="0" />
    </g>
    <path
       style="opacity:0.51999996;fill:#ff2020;fill-opacity:0.50196078;stroke:#ffffff;stroke-width:0.76499999;stroke-miterlimit:4;stroke-dasharray:none;stroke-opacity:1"
       d="m 81.162056,15.372617 h 22.349074 v 5.092195 H 81.162056 Z"
       id="rect1497"
       inkscape:connector-curvature="0" />
    <path
       style="display:inline;opacity:0.51999996;fill:#2020ff;fill-opacity:0.50196078;stroke:#ffffff;stroke-width:0.76499999;stroke-miterlimit:4;stroke-dasharray:none;stroke-opacity:1"
       d="m 104.35984,15.089719 h 22.34908 v 5.092195 h -22.34908 z"
       id="rect1497-0"
       inkscape:connector-curvature="0" />
    <path
       style="display:inline;opacity:0.51999996;fill:#20ff20;fill-opacity:0.50196078;stroke:#ffffff;stroke-width:0.76499999;stroke-miterlimit:4;stroke-dasharray:none;stroke-opacity:1"
       d="m 128.12341,15.089719 h 22.34908 v 5.092195 h -22.34908 z"
       id="rect1497-2"
       inkscape:connector-curvature="0" />
    <g
       aria-label="Major"
       style="font-style:normal;font-weight:normal;font-size:3.52777767px;line-height:1.25;font-family:sans-serif;letter-spacing:0px;word-spacing:0px;fill:#000000;fill-opacity:1;stroke:none;stroke-width:0.26458332"
       id="text1522">
      <path
         d="m 90.327514,19.017807 h -0.341065 v -2.210029 l -0.713134,1.503784 h -0.203261 l -0.707967,-1.503784 v 2.210029 h -0.318672 v -2.564874 h 0.465088 l 0.683852,1.427993 0.661458,-1.427993 h 0.473701 z"
         style="font-size:3.52777767px;stroke-width:0.26458332"
         id="path1557"
         inkscape:connector-curvature="0" />
      <path
         d="m 92.489311,19.017807 h -0.322116 v -0.204983 q -0.04306,0.02928 -0.117133,0.08268 -0.07235,0.05168 -0.141249,0.08268 -0.08096,0.03962 -0.186036,0.06546 -0.105075,0.02756 -0.246324,0.02756 -0.260105,0 -0.440972,-0.172255 -0.180868,-0.172255 -0.180868,-0.439249 0,-0.218764 0.09302,-0.353123 0.09474,-0.136081 0.268717,-0.213596 0.1757,-0.07751 0.422025,-0.105075 0.246324,-0.02756 0.528822,-0.04134 v -0.04995 q 0,-0.110243 -0.03962,-0.18259 -0.0379,-0.07235 -0.110243,-0.113688 -0.0689,-0.03962 -0.165364,-0.0534 -0.09646,-0.01378 -0.201539,-0.01378 -0.127468,0 -0.28422,0.03445 -0.156752,0.03273 -0.323839,0.09646 h -0.01722 v -0.329007 q 0.09474,-0.02584 0.273885,-0.05684 0.179145,-0.03101 0.353122,-0.03101 0.203261,0 0.353122,0.03445 0.151584,0.03273 0.261828,0.113689 0.10852,0.07924 0.165364,0.204983 0.05684,0.125746 0.05684,0.311781 z m -0.322116,-0.473701 v -0.535712 q -0.148139,0.0086 -0.349677,0.02584 -0.199816,0.01723 -0.316949,0.04995 -0.139527,0.03962 -0.225654,0.124024 -0.08613,0.08268 -0.08613,0.229098 0,0.165365 0.09991,0.24977 0.09991,0.08268 0.304891,0.08268 0.170533,0 0.311781,-0.06546 0.141249,-0.06718 0.261828,-0.160197 z"
         style="font-size:3.52777767px;stroke-width:0.26458332"
         id="path1559"
         inkscape:connector-curvature="0" />
      <path
         d="m 93.715765,16.771605 h -0.36518 v -0.335897 h 0.36518 z m -0.02067,2.292711 q 0,0.337619 -0.172255,0.509874 -0.172255,0.172255 -0.461643,0.172255 -0.0689,0 -0.18259,-0.01378 -0.111965,-0.01378 -0.187757,-0.03445 v -0.308336 h 0.01722 q 0.04823,0.01895 0.129191,0.04306 0.08268,0.02412 0.160197,0.02412 0.124023,0 0.199816,-0.03445 0.07579,-0.03445 0.113688,-0.103353 0.0379,-0.0689 0.04823,-0.167087 0.01206,-0.09646 0.01206,-0.235989 v -1.550293 h -0.401354 v -0.272163 h 0.725193 z"
         style="font-size:3.52777767px;stroke-width:0.26458332"
         id="path1561"
         inkscape:connector-curvature="0" />
      <path
         d="m 95.968857,18.056625 q 0,0.470256 -0.241156,0.742418 -0.241157,0.272163 -0.645956,0.272163 -0.408243,0 -0.6494,-0.272163 -0.239434,-0.272162 -0.239434,-0.742418 0,-0.470255 0.239434,-0.742418 0.241157,-0.273885 0.6494,-0.273885 0.404799,0 0.645956,0.273885 0.241156,0.272163 0.241156,0.742418 z m -0.334174,0 q 0,-0.373792 -0.146416,-0.55466 -0.146417,-0.18259 -0.406522,-0.18259 -0.263549,0 -0.409966,0.18259 -0.144694,0.180868 -0.144694,0.55466 0,0.361735 0.146417,0.549493 0.146416,0.186035 0.408243,0.186035 0.258382,0 0.404799,-0.184312 0.148139,-0.186035 0.148139,-0.551216 z"
         style="font-size:3.52777767px;stroke-width:0.26458332"
         id="path1563"
         inkscape:connector-curvature="0" />
      <path
         d="m 97.672458,17.446844 h -0.01723 q -0.07235,-0.01723 -0.141249,-0.02412 -0.06718,-0.0086 -0.160197,-0.0086 -0.149861,0 -0.289388,0.06718 -0.139526,0.06546 -0.268717,0.170533 v 1.36598 h -0.323839 v -1.924086 h 0.323839 v 0.284221 q 0.192925,-0.15503 0.339342,-0.218764 0.148139,-0.06546 0.301446,-0.06546 0.0844,0 0.122301,0.0052 0.0379,0.0034 0.113688,0.0155 z"
         style="font-size:3.52777767px;stroke-width:0.26458332"
         id="path1565"
         inkscape:connector-curvature="0" />
    </g>
    <g
       aria-label="Minor"
       style="font-style:normal;font-weight:normal;font-size:3.52777767px;line-height:1.25;font-family:sans-serif;letter-spacing:0px;word-spacing:0px;fill:#000000;fill-opacity:1;stroke:none;stroke-width:0.26458332"
       id="text1526">
      <path
         d="m 112.6766,18.734905 h -0.34107 v -2.210028 l -0.71313,1.503784 h -0.20326 l -0.70797,-1.503784 v 2.210028 h -0.31867 v -2.564873 h 0.46509 l 0.68385,1.427992 0.66146,-1.427992 h 0.4737 z"
         style="font-size:3.52777767px;stroke-width:0.26458332"
         id="path1546"
         inkscape:connector-curvature="0" />
      <path
         d="M 113.69118,16.488703 H 113.326 v -0.335897 h 0.36518 z m -0.0207,2.246202 h -0.32384 v -1.924086 h 0.32384 z"
         style="font-size:3.52777767px;stroke-width:0.26458332"
         id="path1548"
         inkscape:connector-curvature="0" />
      <path
         d="m 115.9236,18.734905 h -0.32384 v -1.09554 q 0,-0.132636 -0.0155,-0.248047 -0.0155,-0.117133 -0.0568,-0.18259 -0.0431,-0.07235 -0.12402,-0.106798 -0.081,-0.03617 -0.21015,-0.03617 -0.13264,0 -0.27733,0.06546 -0.1447,0.06546 -0.27733,0.167087 v 1.436605 h -0.32384 v -1.924086 h 0.32384 v 0.213596 q 0.15158,-0.125746 0.3135,-0.19637 0.16192,-0.07062 0.33245,-0.07062 0.31179,0 0.47543,0.187758 0.16364,0.187758 0.16364,0.54088 z"
         style="font-size:3.52777767px;stroke-width:0.26458332"
         id="path1550"
         inkscape:connector-curvature="0" />
      <path
         d="m 118.18703,17.773724 q 0,0.470255 -0.24116,0.742418 -0.24116,0.272162 -0.64595,0.272162 -0.40825,0 -0.64941,-0.272162 -0.23943,-0.272163 -0.23943,-0.742418 0,-0.470256 0.23943,-0.742418 0.24116,-0.273886 0.64941,-0.273886 0.40479,0 0.64595,0.273886 0.24116,0.272162 0.24116,0.742418 z m -0.33418,0 q 0,-0.373793 -0.14641,-0.554661 -0.14642,-0.18259 -0.40652,-0.18259 -0.26355,0 -0.40997,0.18259 -0.1447,0.180868 -0.1447,0.554661 0,0.361735 0.14642,0.549492 0.14642,0.186035 0.40825,0.186035 0.25838,0 0.40479,-0.184312 0.14814,-0.186035 0.14814,-0.551215 z"
         style="font-size:3.52777767px;stroke-width:0.26458332"
         id="path1552"
         inkscape:connector-curvature="0" />
      <path
         d="m 119.89063,17.163942 h -0.0172 q -0.0724,-0.01723 -0.14125,-0.02412 -0.0672,-0.0086 -0.16019,-0.0086 -0.14987,0 -0.28939,0.06718 -0.13953,0.06546 -0.26872,0.170532 v 1.36598 h -0.32384 v -1.924086 h 0.32384 v 0.284221 q 0.19293,-0.155029 0.33934,-0.218764 0.14814,-0.06546 0.30145,-0.06546 0.0844,0 0.1223,0.0052 0.0379,0.0034 0.11369,0.0155 z"
         style="font-size:3.52777767px;stroke-width:0.26458332"
         id="path1554"
         inkscape:connector-curvature="0" />
    </g>
    <g
       aria-label="Diminished"
       style="font-style:normal;font-weight:normal;font-size:3.52777767px;line-height:1.25;font-family:sans-serif;letter-spacing:0px;word-spacing:0px;fill:#000000;fill-opacity:1;stroke:none;stroke-width:0.26458332"
       id="text1530">
      <path
         d="m 131.79665,17.45506 q 0,0.349677 -0.15331,0.633897 -0.15158,0.284221 -0.4048,0.440973 -0.1757,0.10852 -0.39274,0.156752 -0.21532,0.04823 -0.56844,0.04823 h -0.64768 v -2.564874 h 0.64079 q 0.37551,0 0.596,0.05512 0.22221,0.0534 0.37552,0.148139 0.26182,0.163642 0.40824,0.435805 0.14642,0.272162 0.14642,0.645955 z m -0.35657,-0.0052 q 0,-0.301446 -0.10508,-0.508151 -0.10507,-0.206706 -0.3135,-0.325562 -0.15158,-0.08613 -0.32212,-0.118856 -0.17053,-0.03445 -0.40824,-0.03445 h -0.32039 v 1.979208 h 0.32039 q 0.24632,0 0.42891,-0.03617 0.18432,-0.03617 0.33762,-0.134358 0.19121,-0.122301 0.28595,-0.322117 0.0965,-0.199815 0.0965,-0.499539 z"
         style="font-size:3.52777767px;stroke-width:0.26458332"
         id="path1525"
         inkscape:connector-curvature="0" />
      <path
         d="m 132.67342,16.488711 h -0.36518 v -0.335897 h 0.36518 z m -0.0207,2.246202 h -0.32384 v -1.924086 h 0.32384 z"
         style="font-size:3.52777767px;stroke-width:0.26458332"
         id="path1527"
         inkscape:connector-curvature="0" />
      <path
         d="m 136.10474,18.734913 h -0.32384 v -1.09554 q 0,-0.124024 -0.0121,-0.239435 -0.0103,-0.11541 -0.0465,-0.184312 -0.0396,-0.07407 -0.11369,-0.111966 -0.0741,-0.0379 -0.21359,-0.0379 -0.13608,0 -0.27216,0.0689 -0.13609,0.06718 -0.27217,0.172255 0.005,0.03962 0.009,0.09302 0.003,0.05168 0.003,0.103353 v 1.231622 h -0.32384 v -1.09554 q 0,-0.127469 -0.0121,-0.241157 -0.0103,-0.115411 -0.0465,-0.184313 -0.0396,-0.07407 -0.11369,-0.110243 -0.0741,-0.0379 -0.2136,-0.0379 -0.13263,0 -0.26699,0.06546 -0.13264,0.06546 -0.26528,0.167087 v 1.436605 h -0.32383 v -1.924086 h 0.32383 v 0.213596 q 0.15159,-0.125746 0.30145,-0.19637 0.15158,-0.07062 0.32212,-0.07062 0.19637,0 0.33245,0.08268 0.1378,0.08268 0.20498,0.229099 0.19637,-0.165364 0.35829,-0.237711 0.16192,-0.07407 0.34623,-0.07407 0.31695,0 0.46681,0.192925 0.15159,0.191203 0.15159,0.535713 z"
         style="font-size:3.52777767px;stroke-width:0.26458332"
         id="path1529"
         inkscape:connector-curvature="0" />
      <path
         d="m 137.07625,16.488711 h -0.36518 v -0.335897 h 0.36518 z m -0.0207,2.246202 h -0.32383 v -1.924086 h 0.32383 z"
         style="font-size:3.52777767px;stroke-width:0.26458332"
         id="path1531"
         inkscape:connector-curvature="0" />
      <path
         d="m 139.30868,18.734913 h -0.32384 v -1.09554 q 0,-0.132637 -0.0155,-0.248047 -0.0155,-0.117134 -0.0568,-0.18259 -0.0431,-0.07235 -0.12402,-0.106798 -0.081,-0.03617 -0.21015,-0.03617 -0.13264,0 -0.27733,0.06546 -0.1447,0.06546 -0.27733,0.167087 v 1.436605 h -0.32384 v -1.924086 h 0.32384 v 0.213596 q 0.15158,-0.125746 0.3135,-0.19637 0.16192,-0.07062 0.33245,-0.07062 0.31178,0 0.47542,0.187758 0.16365,0.187758 0.16365,0.54088 z"
         style="font-size:3.52777767px;stroke-width:0.26458332"
         id="path1533"
         inkscape:connector-curvature="0" />
      <path
         d="m 140.28019,16.488711 h -0.36518 v -0.335897 h 0.36518 z m -0.0207,2.246202 h -0.32384 v -1.924086 h 0.32384 z"
         style="font-size:3.52777767px;stroke-width:0.26458332"
         id="path1535"
         inkscape:connector-curvature="0" />
      <path
         d="m 142.27835,18.180253 q 0,0.263549 -0.21877,0.432359 -0.21704,0.16881 -0.59427,0.16881 -0.2136,0 -0.39275,-0.04995 -0.17742,-0.05168 -0.298,-0.111966 v -0.363457 h 0.0172 q 0.15331,0.11541 0.34106,0.184312 0.18776,0.06718 0.36002,0.06718 0.21359,0 0.33417,-0.0689 0.12058,-0.0689 0.12058,-0.217041 0,-0.113688 -0.0655,-0.172255 -0.0654,-0.05857 -0.25149,-0.09991 -0.0689,-0.0155 -0.18087,-0.03617 -0.11024,-0.02067 -0.20154,-0.04479 -0.25321,-0.06718 -0.36001,-0.19637 -0.10507,-0.130914 -0.10507,-0.320394 0,-0.118856 0.0482,-0.223931 0.0499,-0.105076 0.14986,-0.187758 0.0965,-0.08096 0.2446,-0.127468 0.14986,-0.04823 0.33418,-0.04823 0.17225,0 0.34795,0.04306 0.17742,0.04134 0.29456,0.10163 v 0.346232 h -0.0172 q -0.12402,-0.0913 -0.30145,-0.153306 -0.17742,-0.06374 -0.34795,-0.06374 -0.17742,0 -0.29972,0.0689 -0.1223,0.06718 -0.1223,0.201538 0,0.118856 0.0741,0.179145 0.0723,0.06029 0.23426,0.09819 0.0896,0.02067 0.19982,0.04134 0.11196,0.02067 0.18603,0.0379 0.22566,0.05168 0.34796,0.177422 0.1223,0.127469 0.1223,0.33762 z"
         style="font-size:3.52777767px;stroke-width:0.26458332"
         id="path1537"
         inkscape:connector-curvature="0" />
      <path
         d="m 144.3523,18.734913 h -0.32384 v -1.09554 q 0,-0.132637 -0.0155,-0.248047 -0.0155,-0.117134 -0.0568,-0.18259 -0.0431,-0.07235 -0.12402,-0.106798 -0.081,-0.03617 -0.21015,-0.03617 -0.13264,0 -0.27733,0.06546 -0.1447,0.06546 -0.27733,0.167087 v 1.436605 h -0.32384 v -2.680284 h 0.32384 v 0.969794 q 0.15158,-0.125746 0.3135,-0.19637 0.16192,-0.07062 0.33245,-0.07062 0.31178,0 0.47542,0.187758 0.16365,0.187758 0.16365,0.54088 z"
         style="font-size:3.52777767px;stroke-width:0.26458332"
         id="path1539"
         inkscape:connector-curvature="0" />
      <path
         d="m 146.58644,17.80646 h -1.41766 q 0,0.177422 0.0534,0.310058 0.0534,0.130914 0.14642,0.215319 0.0896,0.08268 0.21187,0.124023 0.12403,0.04134 0.27217,0.04134 0.19637,0 0.39446,-0.07751 0.19981,-0.07924 0.28422,-0.15503 h 0.0172 v 0.353123 q -0.16364,0.0689 -0.33417,0.11541 -0.17053,0.04651 -0.35829,0.04651 -0.47887,0 -0.74759,-0.258382 -0.26871,-0.260105 -0.26871,-0.73725 0,-0.471979 0.25666,-0.749309 0.25838,-0.27733 0.67868,-0.27733 0.3893,0 0.59945,0.227376 0.21187,0.227377 0.21187,0.645956 z m -0.31523,-0.248047 q -0.002,-0.254937 -0.12919,-0.394464 -0.12574,-0.139526 -0.38412,-0.139526 -0.26011,0 -0.41514,0.153307 -0.15331,0.153307 -0.17398,0.380683 z"
         style="font-size:3.52777767px;stroke-width:0.26458332"
         id="path1541"
         inkscape:connector-curvature="0" />
      <path
         d="m 148.638,18.734913 h -0.32384 v -0.201538 q -0.13953,0.120578 -0.29111,0.187757 -0.15159,0.06718 -0.32901,0.06718 -0.34451,0 -0.54777,-0.265272 -0.20154,-0.265273 -0.20154,-0.735528 0,-0.244602 0.0689,-0.435805 0.0706,-0.191203 0.18948,-0.325561 0.11714,-0.130914 0.27217,-0.199816 0.15675,-0.0689 0.32383,-0.0689 0.15159,0 0.26872,0.03273 0.11714,0.03101 0.24633,0.09819 v -0.833713 h 0.32384 z m -0.32384,-0.473701 v -1.104153 q -0.13092,-0.05857 -0.23427,-0.08096 -0.10335,-0.02239 -0.22565,-0.02239 -0.27217,0 -0.42375,0.189481 -0.15158,0.18948 -0.15158,0.537434 0,0.342787 0.11713,0.521932 0.11713,0.177423 0.37551,0.177423 0.13781,0 0.27906,-0.06029 0.14125,-0.06201 0.26355,-0.158475 z"
         style="font-size:3.52777767px;stroke-width:0.26458332"
         id="path1543"
         inkscape:connector-curvature="0" />
    </g>
    <flowRoot
       xml:space="preserve"
       id="flowRoot1956"
       style="font-style:normal;font-weight:normal;font-size:16px;line-height:1.25;font-family:sans-serif;letter-spacing:0px;word-spacing:0px;fill:#000000;fill-opacity:1;stroke:none"><flowRegion
         id="flowRegion1958"><rect
           id="rect1960"
           width="5.3461366"
           height="20.315319"
           x="473.66769"
           y="-311.97427" /></flowRegion><flowPara
         id="flowPara1962" /></flowRoot>    <text
       xml:space="preserve"
       style="font-style:normal;font-weight:normal;font-size:4.23333311px;line-height:1.25;font-family:sans-serif;letter-spacing:0px;word-spacing:0px;fill:#000000;fill-opacity:1;stroke:none;stroke-width:0.26458332"
       x="79.26432"
       y="-20.463003"
       id="text1966"><tspan
         sodipodi:role="line"
         id="tspan1964"
         x="79.26432"
         y="-16.600805"
         style="stroke-width:0.26458332" /></text>
    <path
       style="display:inline;opacity:1;fill:#ffffff;fill-opacity:1;stroke:#000000;stroke-width:0.82835561;stroke-miterlimit:4;stroke-dasharray:none;stroke-opacity:1"
       d="m 188.23315,2.6184991 h 11.30704 v 5.665221 h -11.30704 z"
       id="rect1625-9-4"
       inkscape:connector-curvature="0" />
    <path
       style="display:inline;opacity:1;fill:#ffffff;fill-opacity:1;stroke:#000000;stroke-width:0.82835561;stroke-miterlimit:4;stroke-dasharray:none;stroke-opacity:1"
       d="m 199.54019,2.6184989 h 11.30704 v 5.6652212 h -11.30704 z"
       id="rect1625-9-5"
       inkscape:connector-curvature="0" />
    <path
       style="display:inline;opacity:1;fill:#ffffff;fill-opacity:1;stroke:#000000;stroke-width:0.82835561;stroke-miterlimit:4;stroke-dasharray:none;stroke-opacity:1"
       d="m 210.84723,2.6184992 h 11.30704 v 5.6652209 h -11.30704 z"
       id="rect1625-9-9"
       inkscape:connector-curvature="0" />
    <path
       style="display:inline;opacity:1;fill:#ffffff;fill-opacity:1;stroke:#000000;stroke-width:0.82835561;stroke-miterlimit:4;stroke-dasharray:none;stroke-opacity:1"
       d="m 319.46648,1.7718321 h 11.30704 v 5.6652212 h -11.30704 z"
       id="rect1625-9-0"
       inkscape:connector-curvature="0" />
    <path
       style="display:inline;opacity:1;fill:#ffffff;fill-opacity:1;stroke:#000000;stroke-width:0.82835561;stroke-miterlimit:4;stroke-dasharray:none;stroke-opacity:1"
       d="m 330.77352,1.7718321 h 11.30704 v 5.665221 h -11.30704 z"
       id="rect1625-9-96"
       inkscape:connector-curvature="0" />
    <path
       style="display:inline;opacity:1;fill:#ffffff;fill-opacity:1;stroke:#000000;stroke-width:0.82835561;stroke-miterlimit:4;stroke-dasharray:none;stroke-opacity:1"
       d="m 222.15427,2.6184992 h 11.30704 v 5.6652209 h -11.30704 z"
       id="rect1625-9-9-1"
       inkscape:connector-curvature="0" />
    <text
       xml:space="preserve"
       style="font-style:normal;font-weight:normal;font-size:2.82222223px;line-height:1.25;font-family:sans-serif;letter-spacing:0px;word-spacing:0px;fill:#000000;fill-opacity:1;stroke:none;stroke-width:0.26458332"
       x="171.02667"
       y="128.07668"
       id="text1904"><tspan
         sodipodi:role="line"
         id="tspan1901"
         x="171.02667"
         y="130.65147"
         style="stroke-width:0.26458332" /></text>
    <text
       xml:space="preserve"
       style="font-style:normal;font-weight:normal;font-size:4.23333311px;line-height:1.25;font-family:sans-serif;letter-spacing:0px;word-spacing:0px;fill:#000000;fill-opacity:1;stroke:none;stroke-width:0.26458332"
       x="138.85333"
       y="-32.931114"
       id="text1905"><tspan
         sodipodi:role="line"
         id="tspan1903"
         x="138.85333"
         y="-29.068916"
         style="stroke-width:0.26458332" /></text>
    <g
       aria-label=" "
       style="font-style:normal;font-weight:normal;font-size:4.23333311px;line-height:1.25;font-family:sans-serif;letter-spacing:0px;word-spacing:0px;fill:#000000;fill-opacity:1;stroke:none;stroke-width:0.26458332"
       id="text1766" />
    <text
       xml:space="preserve"
       style="font-style:normal;font-weight:normal;font-size:4.23333311px;line-height:1.25;font-family:sans-serif;letter-spacing:0px;word-spacing:0px;fill:#000000;fill-opacity:1;stroke:none;stroke-width:0.26458332"
       x="266.70493"
       y="26.234598"
       id="text1774"><tspan
         sodipodi:role="line"
         id="tspan1772"
         x="266.70493"
         y="30.096796"
         style="stroke-width:0.26458332" /></text>
  </g>
  <g
     inkscape:groupmode="layer"
     id="layer3"
     inkscape:label="widgets"
     style="display:none" />
  <g
     inkscape:groupmode="layer"
     id="layer2"
     inkscape:label="components"
     style="display:inline" />
</svg>
